<?xml version="1.0" encoding="UTF-8" standalone="no"?>
<!-- Uploaded to: SVG Repo, www.svgrepo.com, Generator: SVG Repo Mixer Tools -->

<svg
   width="1000"
   height="1000"
   viewBox="-2 0 25 25"
   version="1.1"
   id="svg1"
   sodipodi:docname="egg-86-svgrepo-com.svg"
   xml:space="preserve"
   inkscape:export-filename="tamago_icon.png"
   inkscape:export-xdpi="96"
   inkscape:export-ydpi="96"
   inkscape:version="1.4 (e7c3feb1, 2024-10-09)"
   xmlns:inkscape="http://www.inkscape.org/namespaces/inkscape"
   xmlns:sodipodi="http://sodipodi.sourceforge.net/DTD/sodipodi-0.dtd"
   xmlns="http://www.w3.org/2000/svg"
   xmlns:svg="http://www.w3.org/2000/svg"
   xmlns:rdf="http://www.w3.org/1999/02/22-rdf-syntax-ns#"
   xmlns:cc="http://creativecommons.org/ns#"
   xmlns:dc="http://purl.org/dc/elements/1.1/"><sodipodi:namedview
     id="namedview1"
     pagecolor="#ffffff"
     bordercolor="#000000"
     borderopacity="0.25"
     inkscape:showpageshadow="2"
     inkscape:pageopacity="0.0"
     inkscape:pagecheckerboard="0"
     inkscape:deskcolor="#d1d1d1"
     inkscape:zoom="0.26773467"
     inkscape:cx="65.36322"
     inkscape:cy="902.01243"
     inkscape:window-width="1440"
     inkscape:window-height="872"
     inkscape:window-x="0"
     inkscape:window-y="0"
     inkscape:window-maximized="0"
     inkscape:current-layer="Page-1" /><title
     id="title1">egg [#86]</title><desc
     id="desc1">Created with Sketch.</desc><defs
     id="defs1" /><g
     id="Page-1"
     stroke="none"
     stroke-width="1"
     fill="none"
     fill-rule="evenodd"
     transform="translate(2.5,2.5)"><g
       id="Dribbble-Light-Preview"
       transform="translate(-142,-7839)"
       fill="#000000"
       style="fill:#fffbde;fill-opacity:1"><g
         id="icons"
         transform="translate(56,160)"
         style="fill:#fffbde;fill-opacity:1"><path
           d="m 94,7697 c -3.308,0 -6,-2.692 -6,-6 0,-4.732 3.39,-10 5.688,-10 2.851,0 6.312,6.241 6.312,10 0,3.308 -2.692,6 -6,6 m -0.312,-18 c -4.418,0 -7.688,7.582 -7.688,12 0,4.418 3.582,8 8,8 4.418,0 8,-3.582 8,-8 0,-4.418 -3.894,-12 -8.312,-12"
           id="egg-[#86]"
           style="fill:#fffbde;fill-opacity:1" /></g></g><rect
       style="fill:#4682a9;fill-opacity:1;stroke:none;stroke-width:0.75;stroke-linejoin:round"
       id="rect1"
       width="25"
       height="25"
       x="-4.5"
       y="-2.5" /><path
       style="fill:#fffbde;fill-opacity:1;stroke:none;stroke-width:112.051;stroke-linejoin:round"
       d="m 457.54254,814.53721 c -86.93909,-16.83286 -153.2743,-74.35627 -184.11227,-159.65527 -8.94515,-24.74263 -9.90198,-32.4578 -9.88245,-79.68561 0.0237,-57.21852 5.59369,-90.96306 24.6501,-149.33604 32.93534,-100.88647 98.47806,-197.00669 158.13949,-231.91598 25.84456,-15.12225 58.35546,-15.24627 87.06712,-0.33215 63.49276,32.98097 142.00023,144.36601 179.48245,254.64655 33.56921,98.76755 33.59255,169.15304 0.0786,237.12134 -28.85479,58.51939 -90.04702,109.07179 -150.84191,124.61423 -33.45559,8.55306 -74.63144,10.34169 -104.58115,4.54293 z"
       id="path1"
       transform="matrix(0.025,0,0,0.025,-4.5,-2.5)" /></g><metadata
     id="metadata1"><rdf:RDF><cc:Work
         rdf:about=""><dc:title>egg [#86]</dc:title></cc:Work></rdf:RDF></metadata></svg>
